<svg width="24" height="24" viewBox="0 0 24 24" fill="none" xmlns="http://www.w3.org/2000/svg">
<path fill-rule="evenodd" clip-rule="evenodd" d="M10 22.007C8.02 22.007 2 22.007 2 18.136C2 14.287 8.024 14.287 10 14.287C11.976 14.287 18 14.287 18 18.158C18 22.007 11.98 22.007 10 22.007ZM10 16.248C7.243 16.248 3.956 16.575 3.956 18.137C3.956 19.716 7.243 20.047 10 20.047C12.757 20.047 16.043 19.72 16.043 18.158C16.044 16.579 12.758 16.247 10 16.247V16.248ZM10 12.974H9.969C8.51228 13.0169 7.0981 12.4799 6.03702 11.4809C4.97594 10.4819 4.35472 9.10261 4.30979 7.64596C4.26486 6.1893 4.79988 4.77437 5.79737 3.71188C6.79486 2.64939 8.17326 2.02623 9.62985 1.97924C11.0864 1.93226 12.5021 2.46529 13.566 3.46128C14.6299 4.45727 15.255 5.83478 15.3041 7.29131C15.3531 8.74783 14.8221 10.1643 13.8276 11.2296C12.8331 12.2949 11.4565 12.9219 10 12.973V12.974ZM10 3.963C9.06511 3.95929 8.16704 4.32711 7.50335 4.98555C6.83966 5.64399 6.46471 6.53911 6.461 7.474C6.45729 8.40889 6.82511 9.30696 7.48355 9.97065C8.14199 10.6343 9.03711 11.0093 9.972 11.013L10 11.993V11.013C10.935 11.013 11.8317 10.6416 12.4929 9.98041C13.1541 9.31925 13.5255 8.42252 13.5255 7.4875C13.5255 6.55248 13.1541 5.65576 12.4929 4.9946C11.8317 4.33344 10.935 3.962 10 3.962V3.963Z" fill="#000000"/>
<path d="M21.2037 9.66922C21.2037 9.11694 20.756 8.66922 20.2037 8.66922C19.6514 8.66922 19.2037 9.11694 19.2037 9.66922V10.6741H18.1596C17.6073 10.6741 17.1596 11.1218 17.1596 11.6741C17.1596 12.2264 17.6073 12.6741 18.1596 12.6741H19.2037V13.6792C19.2037 14.2315 19.6514 14.6792 20.2037 14.6792C20.756 14.6792 21.2037 14.2315 21.2037 13.6792V12.6741H22.2496C22.8019 12.6741 23.2496 12.2264 23.2496 11.6741C23.2496 11.1218 22.8019 10.6741 22.2496 10.6741H21.2037V9.66922Z" fill="#000000"/>
</svg>
