<svg width="24" height="24" viewBox="0 0 24 24" fill="none" xmlns="http://www.w3.org/2000/svg">
<path fill-rule="evenodd" clip-rule="evenodd" d="M16 22H8C6.67392 22 5.40215 21.4732 4.46447 20.5355C3.52678 19.5979 3 18.3261 3 17V13C2.99976 11.8473 3.39778 10.73 4.12669 9.8371C4.8556 8.94418 5.87064 8.33053 7 8.1V7C7 5.67392 7.52678 4.40215 8.46447 3.46447C9.40215 2.52678 10.6739 2 12 2C13.3261 2 14.5979 2.52678 15.5355 3.46447C16.4732 4.40215 17 5.67392 17 7V8.1C18.1294 8.33053 19.1444 8.94418 19.8733 9.8371C20.6022 10.73 21.0002 11.8473 21 13V17C21 18.3261 20.4732 19.5979 19.5355 20.5355C18.5979 21.4732 17.3261 22 16 22ZM15 7C15 6.20435 14.6839 5.44129 14.1213 4.87868C13.5587 4.31607 12.7956 4 12 4C11.2044 4 10.4413 4.31607 9.87868 4.87868C9.31607 5.44129 9 6.20435 9 7V8H15V7ZM19 13C19 12.2044 18.6839 11.4413 18.1213 10.8787C17.5587 10.3161 16.7956 10 16 10H8C7.20435 10 6.44129 10.3161 5.87868 10.8787C5.31607 11.4413 5 12.2044 5 13V17C5 17.7956 5.31607 18.5587 5.87868 19.1213C6.44129 19.6839 7.20435 20 8 20H16C16.7956 20 17.5587 19.6839 18.1213 19.1213C18.6839 18.5587 19 17.7956 19 17V13ZM12 17C11.7348 17 11.4804 16.8946 11.2929 16.7071C11.1054 16.5196 11 16.2652 11 16V14C11 13.7348 11.1054 13.4804 11.2929 13.2929C11.4804 13.1054 11.7348 13 12 13C12.2652 13 12.5196 13.1054 12.7071 13.2929C12.8946 13.4804 13 13.7348 13 14V16C13 16.2652 12.8946 16.5196 12.7071 16.7071C12.5196 16.8946 12.2652 17 12 17Z" fill="#000000"/>
</svg>
