<svg width="24" height="24" viewBox="0 0 24 24" fill="none" xmlns="http://www.w3.org/2000/svg">
<path d="M14.3979 15.0126C14.7892 15.4022 14.7906 16.0354 14.4009 16.4268C14.0112 16.8181 13.3781 16.8195 12.9867 16.4298L9.50072 12.9588C9.31225 12.7712 9.2063 12.5162 9.2063 12.2502C9.2063 11.9842 9.31225 11.7292 9.50072 11.5416L12.9867 8.07056C13.3781 7.68088 14.0112 7.68225 14.4009 8.07361C14.7906 8.46498 14.7892 9.09814 14.3979 9.48782L11.6236 12.2502L14.3979 15.0126Z" fill="#1E1F24"/>
<path fill-rule="evenodd" clip-rule="evenodd" d="M22.5 12.25C22.5 17.9114 17.9102 22.5 12.25 22.5C6.58979 22.5 2 17.9114 2 12.25C2 6.58972 6.58972 2 12.25 2C17.9103 2 22.5 6.58972 22.5 12.25ZM12.25 20.5C16.8058 20.5 20.5 16.8066 20.5 12.25C20.5 7.69429 16.8057 4 12.25 4C7.69429 4 4 7.69429 4 12.25C4 16.8066 7.69421 20.5 12.25 20.5Z" fill="#1E1F24"/>
</svg>
